<?xml version="1.0" standalone="no"?><!DOCTYPE svg PUBLIC "-//W3C//DTD SVG 1.1//EN" "http://www.w3.org/Graphics/SVG/1.1/DTD/svg11.dtd"><svg t="1502412083352" class="icon" style="" viewBox="0 0 1024 1024" version="1.1" xmlns="http://www.w3.org/2000/svg" p-id="36025" xmlns:xlink="http://www.w3.org/1999/xlink" width="128" height="128"><defs><style type="text/css"></style></defs><path d="M169.92 726.016H32.896a32 32 0 0 0-32 31.936v233.792a32 32 0 0 0 32 32h137.024a32 32 0 0 0 32-32v-233.792a32 32 0 0 0-32-31.936z m-32 233.728H64.896v-169.856h73.088v169.856zM443.968 299.968H306.88a32 32 0 0 0-32 32v659.84a32 32 0 0 0 32 32h137.024a32 32 0 0 0 32-32V331.968a32 32 0 0 0-31.936-32z m-32 659.776H338.88v-595.84h73.088v595.84zM717.952 518.528H580.928a31.936 31.936 0 0 0-31.936 32v441.28a32 32 0 0 0 31.936 32h137.024a32 32 0 0 0 31.936-32V550.528a32 32 0 0 0-31.936-32z m-31.936 441.216H612.864V582.528h73.152v377.216zM992 0.704h-137.088a32 32 0 0 0-31.936 32v959.04a32 32 0 0 0 31.936 32H992a32 32 0 0 0 31.936-32V32.704a32 32 0 0 0-31.936-32zM960 959.744h-73.152V64.64H960v895.104z" fill="#4CCAD3" p-id="36026"></path></svg>