<?xml version="1.0" standalone="no"?><!DOCTYPE svg PUBLIC "-//W3C//DTD SVG 1.1//EN" "http://www.w3.org/Graphics/SVG/1.1/DTD/svg11.dtd"><svg t="1502429590478" class="icon" style="" viewBox="0 0 1024 1024" version="1.1" xmlns="http://www.w3.org/2000/svg" p-id="52853" xmlns:xlink="http://www.w3.org/1999/xlink" width="128" height="128"><defs><style type="text/css"></style></defs><path d="M512.515 307.207c0 127.858-103.649 231.507-231.507 231.507S49.501 435.065 49.501 307.207 153.15 75.7 281.008 75.7s231.507 103.649 231.507 231.507" fill="#FFDEEB" p-id="52854"></path><path d="M975.529 648.955c0 127.858-103.649 231.507-231.507 231.507S512.515 776.813 512.515 648.955s103.649-231.507 231.507-231.507 231.507 103.649 231.507 231.507" fill="#DCE0FF" p-id="52855"></path><path d="M538.782 317.864c0-139.852-113.797-253.644-253.66-253.644S31.484 178.012 31.484 317.864c0 132.973 102.85 242.355 233.177 252.811v134.671H142.249c-8.279 0-15.004 9.927-15.004 22.164 0 12.248 6.719 22.164 15.004 22.164h122.412v140.337c0 10.495 9.927 18.989 22.164 18.989 12.231 0 22.159-8.494 22.159-18.989V749.674h119.022c8.285 0 15.004-9.916 15.004-22.164 0-12.242-6.719-22.17-15.004-22.17H308.984V570.372c128.718-12.066 229.798-120.698 229.798-252.508m-253.66 202.381c-111.597 0-202.381-90.784-202.381-202.381 0-111.586 90.784-202.387 202.381-202.387 111.592 0 202.392 90.8 202.392 202.387 0 111.597-90.794 202.381-202.392 202.381" fill="#FC4C82" p-id="52856"></path><path d="M975.56 560.281c-13.019-32.119-32.157-60.936-56.857-85.635-24.7-24.7-53.506-43.827-85.63-56.857a257.621 257.621 0 0 0-75.234-18.002V145.079l96.571 96.571c9.106 9.106 23.878 9.106 32.984 0 9.106-9.106 9.106-23.873 0-32.984L753.97 75.246c-9.106-9.106-23.873-9.106-32.984 0l-133.42 133.42c-9.106 9.111-9.106 23.878 0 32.984 9.106 9.106 23.878 9.106 32.984 0l90.641-90.641v248.975c-25.036 2.348-49.465 8.307-72.892 17.804-32.124 13.031-60.936 32.157-85.636 56.857-24.705 24.7-43.832 53.517-56.857 85.635-12.579 31.016-18.956 63.78-18.956 97.387s6.377 66.371 18.956 97.387c13.025 32.124 32.152 60.936 56.857 85.636 24.7 24.7 53.511 43.826 85.636 56.852 31.011 12.579 63.775 18.956 97.387 18.956 33.602 0.006 66.371-6.377 97.382-18.951 32.124-13.025 60.936-32.152 85.641-56.857 24.7-24.7 43.826-53.511 56.851-85.636 12.579-31.016 18.956-63.78 18.956-97.387 0-33.606-6.377-66.37-18.956-97.386m-89.835 247.426c-82.731 82.731-217.347 82.731-300.077 0-82.736-82.731-82.731-217.346 0-300.077s217.341-82.731 300.072 0c82.735 82.73 82.735 217.346 0.005 300.077" fill="#6269F9" p-id="52857"></path></svg>