<?xml version="1.0" standalone="no"?><!DOCTYPE svg PUBLIC "-//W3C//DTD SVG 1.1//EN" "http://www.w3.org/Graphics/SVG/1.1/DTD/svg11.dtd"><svg t="1502259717514" class="icon" style="" viewBox="0 0 1024 1024" version="1.1" xmlns="http://www.w3.org/2000/svg" p-id="32642" xmlns:xlink="http://www.w3.org/1999/xlink" width="128" height="128"><defs><style type="text/css"></style></defs><path d="M253.307 652.225l-49.588-49.588 88.591-88.591 49.588 49.615c9.441 9.441 14.308 15.092 20.389 23.515l18.427-18.422c-8.851-6.479-13.92-10.78-23.515-20.389l-105.437-105.437c-9.204-9.204-13.724-14.519-20.001-23.141l-18.427 18.427c7.846 5.515 14.308 11.171 23.515 20.389l41.553 41.553-88.591 88.591-41.946-41.946c-9.204-9.204-13.92-14.677-20.001-23.141l-18.427 18.422c8.034 5.694 14.112 10.993 23.515 20.389l105.073 105.073c9.596 9.596 14.89 15.667 20.389 23.515l18.427-18.427c-8.227-5.886-13.737-10.587-23.538-20.389zM542.426 139.258l-16.453-16.453c-5.515 7.458-10.391 13.127-21.762 24.503l-76.444 76.444c-10.391 10.391-15.878 15.092-23.724 20.96l16.453 16.453c5.515-7.458 11.171-13.92 21.178-23.922l30.59-30.59 113.090 113.090c9.204 9.204 15.667 16.453 20.571 23.71l18.427-18.427c-8.204-5.888-14.112-10.985-23.724-20.571l-113.090-113.090 30.377-30.377c10.985-10.985 17.063-16.279 24.503-21.748zM321.901 323.685c-41.161 41.161-37.441 98.174 9.607 145.243 47.22 47.22 103.686 51.154 145.052 9.79 41.365-41.365 37.628-97.979-9.607-145.243-47.219-47.22-103.686-51.154-145.052-9.79zM463.047 464.436c-31.351 31.351-77.392 26.834-115.822-11.556s-42.918-84.094-11.556-115.453c13.519-13.519 29.994-20.571 47.804-20.77 22.719 0 45.858 11.346 67.427 32.929 20.96 20.96 32.929 45.47 32.738 67.63 0 17.63-7.051 33.699-20.571 47.22z" fill="#ffffff" p-id="32643" class="selected"></path><path d="M480.8 91.506l-395.863 396.289v445.554l841.846-841.846h-445.962zM238.022 667.481l-105.073-105.073c-9.441-9.441-15.49-14.688-23.515-20.389l18.427-18.422c6.076 8.434 10.78 13.909 20.001 23.141l41.946 41.946 88.591-88.591-41.553-41.553c-9.204-9.204-15.667-14.89-23.515-20.389l18.427-18.427c6.281 8.629 10.78 13.92 20.001 23.141l105.437 105.437c9.607 9.607 14.677 13.92 23.515 20.389l-18.427 18.422c-6.074-8.414-10.985-14.109-20.389-23.515l-49.588-49.615-88.591 88.591 49.588 49.588c9.79 9.79 15.294 14.522 23.515 20.389l-18.427 18.427c-5.515-7.846-10.775-13.948-20.381-23.538zM600.641 304.519c9.607 9.607 15.49 14.677 23.724 20.571l-18.427 18.427c-4.893-7.231-11.346-14.519-20.571-23.71l-113.090-113.090-30.59 30.59c-9.972 9.972-15.655 16.453-21.178 23.922l-16.453-16.453c7.846-5.888 13.331-10.599 23.724-20.96l76.444-76.444c11.346-11.346 16.285-17.063 21.762-24.503l16.453 16.453c-7.458 5.515-13.519 10.78-24.503 21.748l-30.377 30.377 113.090 113.090zM476.556 478.74c-41.365 41.365-97.809 37.441-145.052-9.79-47.065-47.009-50.761-104.083-9.607-145.243 41.365-41.365 97.809-37.441 145.052 9.79 47.22 47.22 50.976 103.898 9.607 145.243z" fill="#d81e06" p-id="32644" class=""></path><path d="M383.455 316.654c-17.821 0.183-34.311 7.231-47.804 20.77-31.351 31.351-26.834 77.012 11.556 115.453 38.459 38.459 84.445 42.918 115.822 11.556 13.519-13.519 20.571-29.59 20.571-47.22 0.183-22.155-11.745-46.677-32.738-67.63-21.561-21.561-44.674-32.929-67.427-32.929z" fill="#d81e06" p-id="32645"></path></svg>