<?xml version="1.0" standalone="no"?><!DOCTYPE svg PUBLIC "-//W3C//DTD SVG 1.1//EN" "http://www.w3.org/Graphics/SVG/1.1/DTD/svg11.dtd"><svg t="1502429713450" class="icon" style="" viewBox="0 0 1024 1024" version="1.1" xmlns="http://www.w3.org/2000/svg" p-id="56738" xmlns:xlink="http://www.w3.org/1999/xlink" width="128" height="128"><defs><style type="text/css"></style></defs><path d="M801.390592 634.494976c12.304384-19.668992 21.929984-40.849408 28.91776-63.463424 1.388544 0.073728 2.772992 0.159744 4.165632 0.159744 50.323456 0 91.262976-46.841856 91.262976-104.411136s-40.93952-104.40704-91.262976-104.40704c-1.47456 0-2.953216 0.045056-4.427776 0.12288-0.77824-3.313664-1.589248-6.643712-2.43712-9.986048 61.161472-34.9184 83.021824-83.644416 84.09088-86.110208 2.342912-5.398528 1.613824-11.644928-1.916928-16.355328-3.534848-4.714496-9.334784-7.163904-15.163392-6.43072-50.19648 6.344704-84.992-29.093888-129.024-73.949184-46.022656-46.891008-103.309312-105.24672-195.928064-124.74368-95.801344-20.160512-162.463744 10.89536-201.510912 40.50944-32.751616 24.834048-51.818496 52.55168-59.121664 64.499712C258.650112 167.780352 223.0272 197.976064 203.10016 239.747072c-20.123648 42.1888-20.21376 88.006656-15.470592 122.826752-47.808512 3.223552-85.843968 48.72192-85.843968 104.206336 0 57.56928 40.93952 104.411136 91.262976 104.411136 8.269824 0 16.355328-1.236992 24.174592-3.6864 28.495872 64.892928 88.30976 157.462528 204.660736 189.93152l0 15.060992c-38.834176 6.254592-145.321984 31.080448-242.900992 123.060224-6.582272 6.209536-6.889472 16.576512-0.684032 23.16288 3.223552 3.416064 7.569408 5.144576 11.927552 5.144576 4.030464 0 8.06912-1.478656 11.235328-4.460544 42.901504-40.439808 88.076288-66.92864 127.434752-84.262912 19.484672 87.650304 97.931264 151.707648 189.394944 151.707648 94.212096 0 173.314048-66.53952 190.541824-157.335552 40.660992 16.5888 89.358336 43.327488 136.077312 86.310912 3.149824 2.895872 7.122944 4.329472 11.087872 4.329472 4.419584 0 8.830976-1.78176 12.058624-5.287936 6.127616-6.660096 5.697536-17.022976-0.96256-23.150592-96.227328-88.551424-198.483968-112.902144-236.306432-119.164928l0-13.971456C663.601152 749.457408 748.76928 718.630912 801.390592 634.494976zM892.96896 466.78016c0 37.875712-24.141824 68.898816-54.554624 71.397376 8.073216-43.106304 7.561216-90.824704-1.593344-142.893056C867.98336 396.812288 892.96896 428.249088 892.96896 466.78016zM613.015552 803.192832c0.55296 0.049152 26.29632 2.523136 64.544768 14.88896-12.1856 78.127104-79.1552 135.999488-159.268864 135.999488-77.811712 0-144.252928-55.78752-158.437376-131.264512 46.44864-16.519168 79.110144-19.562496 79.736832-19.615744 8.507392-0.688128 15.065088-7.794688 15.065088-16.330752L454.656 745.472c0-6.795264-4.13696-12.619776-10.031104-15.106048-1.458176-0.913408-3.039232-1.671168-4.804608-2.097152-170.397696-41.181184-212.992-233.209856-213.4016-235.147264-1.867776-8.843264-10.539008-14.491648-19.39456-12.652544-8.855552 1.859584-14.528512 10.543104-12.673024 19.398656 0.45056 2.1504 3.54304 16.265216 10.79296 36.982784-3.948544 1.024-7.9872 1.568768-12.095488 1.568768-32.256 0-58.494976-32.137216-58.494976-71.643136 0-39.501824 26.238976-71.63904 58.494976-71.63904 0.28672 0 0.57344 0.04096 0.86016 0.049152 3.506176 13.996032 6.81984 22.908928 7.262208 24.072192 2.490368 6.537216 8.708096 10.555392 15.314944 10.555392 1.937408 0 3.91168-0.344064 5.828608-1.077248 8.454144-3.219456 12.701696-12.685312 9.478144-21.143552-0.118784-0.311296-4.44416-11.93984-8.249344-29.892608-0.032768-0.217088-0.090112-0.425984-0.135168-0.638976-6.475776-30.928896-11.255808-80.203776 9.265152-123.211776 16.699392-35.008512 47.84128-60.182528 92.561408-74.83392 4.071424-1.335296 7.45472-4.206592 9.433088-8.003584 0.667648-1.282048 68.493312-127.660032 228.2496-94.035968 82.927616 17.457152 134.12352 69.615616 179.294208 115.634176 38.617088 39.34208 75.444224 76.865536 124.977152 83.488768-15.368192 19.849216-44.294144 47.988736-92.868608 64.622592-100.200448 34.316288-241.352704 4.145152-408.20736-87.228416-4.83328-2.646016-10.665984-2.686976-15.540224-0.106496-4.866048 2.576384-8.114176 7.430144-8.638464 12.914688-0.06144 0.630784-6.71744 63.377408-65.875968 95.797248-7.933952 4.349952-10.842112 14.307328-6.49216 22.24128 4.354048 7.933952 14.307328 10.838016 22.24128 6.49216 49.913856-27.353088 69.976064-71.356416 77.856768-98.234368 168.972288 89.02656 308.609024 115.65056 415.27296 79.126528 4.3008-1.47456 8.429568-3.05152 12.47232-4.673536 15.589376 64.569344 17.969152 122.052608 7.274496 171.966464-2.428928 1.953792-4.333568 4.612096-5.34528 7.798784-1.220608 3.842048-0.88064 7.770112 0.561152 11.218944-6.189056 21.057536-14.831616 40.681472-26.075136 58.728448-57.020416 91.52512-161.456128 112.644096-162.476032 112.8448-7.737344 1.462272-13.33248 8.224768-13.33248 16.09728l0 41.152512C598.016 795.369472 604.545024 802.459648 613.015552 803.192832z" p-id="56739" fill="#34c947"></path></svg>