<?xml version="1.0" standalone="no"?><!DOCTYPE svg PUBLIC "-//W3C//DTD SVG 1.1//EN" "http://www.w3.org/Graphics/SVG/1.1/DTD/svg11.dtd"><svg t="1502429696089" class="icon" style="" viewBox="0 0 1024 1024" version="1.1" xmlns="http://www.w3.org/2000/svg" p-id="56009" xmlns:xlink="http://www.w3.org/1999/xlink" width="128" height="128"><defs><style type="text/css"></style></defs><path d="M851.693 304.494c207.708-216.848-166.938-131.834-194.63-83.906 20.108-77.537-115.581-6.027-153.391 19.043-37.789 25.094-116.135 101.268-116.135 101.268-22.345-101.416-264.583 237.338-157.14 408.516C548.64 279.208 740.543 255.671 740.543 255.671 460.644 427.466 165.195 948.752 165.195 948.752l6.944-3.686-6.944 3.686H755.56V925.15H223.412l1.385-2.301s53.956-86.441 66.247-103.803c296.854-33.271 476.574-249.053 380.164-260.428 178.1-139.8 258.597-273.083 180.485-254.124z" fill="#ECA373" p-id="56010"></path></svg>