<?xml version="1.0" standalone="no"?><!DOCTYPE svg PUBLIC "-//W3C//DTD SVG 1.1//EN" "http://www.w3.org/Graphics/SVG/1.1/DTD/svg11.dtd"><svg t="1503295598579" class="icon" style="" viewBox="0 0 1024 1024" version="1.1" xmlns="http://www.w3.org/2000/svg" p-id="6037" xmlns:xlink="http://www.w3.org/1999/xlink" width="128" height="128"><defs><style type="text/css"></style></defs><path d="M319.573333 42.666667H213.333333a170.666667 170.666667 0 0 0-170.666666 170.666666v106.666667a170.666667 170.666667 0 0 0 170.666666 170.666667h276.906667V213.333333a170.666667 170.666667 0 0 0-170.666667-170.666666z m128 404.48H213.333333a128 128 0 0 1-128-128V213.333333a128 128 0 0 1 128-128h106.666667a128 128 0 0 1 128 128zM42.666667 704.426667V810.666667a170.666667 170.666667 0 0 0 170.666666 170.666666h106.666667a170.666667 170.666667 0 0 0 170.666667-170.666666v-276.48H213.333333a170.666667 170.666667 0 0 0-170.666666 170.24zM447.146667 810.666667a128 128 0 0 1-128 128H213.333333a128 128 0 0 1-128-128v-106.666667a128 128 0 0 1 128-128h234.24zM810.666667 42.666667h-106.666667a170.666667 170.666667 0 0 0-170.666667 170.666666v276.906667H810.666667a170.666667 170.666667 0 0 0 170.666666-170.666667V213.333333a170.666667 170.666667 0 0 0-170.666666-170.666666z m128 276.906666a128 128 0 0 1-128 128h-233.813334V213.333333a128 128 0 0 1 128-128H810.666667a128 128 0 0 1 128 128zM810.666667 534.186667h-276.48V810.666667a170.666667 170.666667 0 0 0 170.666666 170.666666H810.666667a170.666667 170.666667 0 0 0 170.666666-170.666666v-106.666667a170.666667 170.666667 0 0 0-170.666666-169.813333zM938.666667 810.666667a128 128 0 0 1-128 128h-106.666667a128 128 0 0 1-128-128v-233.813334H810.666667a128 128 0 0 1 128 128z" p-id="6038" fill="#2eacbb"></path></svg>