<?xml version="1.0" standalone="no"?><!DOCTYPE svg PUBLIC "-//W3C//DTD SVG 1.1//EN" "http://www.w3.org/Graphics/SVG/1.1/DTD/svg11.dtd"><svg t="1503104900414" class="icon" style="" viewBox="0 0 1024 1024" version="1.1" xmlns="http://www.w3.org/2000/svg" p-id="1845" xmlns:xlink="http://www.w3.org/1999/xlink" width="128" height="128"><defs><style type="text/css"></style></defs><path d="M1024 972.8c-294.4-294.4-294.4-294.4-294.4-294.4 57.6-70.4 96-166.4 96-262.4C825.6 185.6 640 0 409.6 0S0 185.6 0 409.6s185.6 409.6 409.6 409.6c102.4 0 192-38.4 262.4-96 294.4 294.4 294.4 294.4 294.4 294.4L1024 972.8 1024 972.8 1024 972.8zM44.8 409.6c0-204.8 166.4-371.2 371.2-371.2s364.8 166.4 364.8 371.2-166.4 371.2-364.8 371.2S44.8 614.4 44.8 409.6L44.8 409.6z" p-id="1846" fill="#bfbfbf"></path></svg>