<?xml version="1.0" standalone="no"?><!DOCTYPE svg PUBLIC "-//W3C//DTD SVG 1.1//EN" "http://www.w3.org/Graphics/SVG/1.1/DTD/svg11.dtd"><svg t="1502606792859" class="icon" style="" viewBox="0 0 1024 1024" version="1.1" xmlns="http://www.w3.org/2000/svg" p-id="3430" xmlns:xlink="http://www.w3.org/1999/xlink" width="128" height="128"><defs><style type="text/css"></style></defs><path d="M724.742382 598.515235 512 598.515235 512 158.847645C512 150.33795 506.32687 144.66482 497.817175 144.66482 489.307479 144.66482 483.634349 150.33795 483.634349 158.847645L483.634349 598.515235l-14.182825 0c-8.509695 0-14.182825 5.67313-14.182825 14.182825 0 8.509695 5.67313 14.182825 14.182825 14.182825L483.634349 626.880886l0 14.182825c0 8.509695 5.67313 14.182825 14.182825 14.182825 8.509695 0 14.182825-5.67313 14.182825-14.182825L512 626.880886l212.742382 0c8.509695 0 14.182825-5.67313 14.182825-14.182825C738.925208 604.188366 733.252078 598.515235 724.742382 598.515235z" p-id="3431" fill="#707070"></path><path d="M512 0C231.180055 0 1.418283 229.761773 1.418283 513.418283s229.761773 510.581717 510.581717 510.581717 510.581717-229.761773 510.581717-510.581717S795.65651 0 512 0zM512 995.634349C248.199446 995.634349 29.783934 777.218837 29.783934 513.418283S248.199446 31.202216 512 31.202216s482.216066 215.578947 482.216066 482.216066S778.637119 995.634349 512 995.634349z" p-id="3432" fill="#707070"></path></svg>